<svg width="20" height="20" viewBox="0 0 20 20" fill="none" xmlns="http://www.w3.org/2000/svg">
<g clip-path="url(#clip0_17353_115237)">
<path d="M14.6703 19.9976H5.32861C4.15361 19.9976 3.06195 19.3893 2.47861 18.4227C1.94528 17.531 1.91195 16.4644 2.40361 15.5561C3.85361 12.8479 6.76195 11.1562 10.0036 11.1562C13.2453 11.1562 16.1536 12.8395 17.6036 15.5561C18.0869 16.4644 18.0619 17.531 17.5286 18.4227C16.9453 19.3977 15.8536 19.9976 14.6703 19.9976ZM10.0036 12.9479C7.42861 12.9479 5.12028 14.2728 3.97861 16.3977C3.72028 16.8811 3.88695 17.2977 4.01195 17.4977C4.27028 17.931 4.77861 18.206 5.32861 18.206H14.6703C15.2203 18.206 15.7286 17.931 15.9869 17.4977C16.1119 17.2894 16.2786 16.8727 16.0203 16.3977C14.8869 14.2728 12.5786 12.9479 9.99528 12.9479H10.0036Z" fill="#A8A8AE"/>
<path d="M9.9957 9.8175C10.9707 9.8175 11.9124 9.52585 12.7207 8.99253C13.529 8.45088 14.154 7.68424 14.529 6.7926C14.904 5.89263 14.9957 4.90933 14.8124 3.95936C14.6207 3.00939 14.154 2.13441 13.4707 1.44277C12.7874 0.759458 11.9124 0.284473 10.954 0.101146C10.004 -0.0905148 9.0207 0.00114898 8.1207 0.376137C7.2207 0.751125 6.45404 1.37611 5.9207 2.18441C5.37904 2.99272 5.0957 3.94269 5.0957 4.90933C5.0957 6.20928 5.61237 7.45925 6.53737 8.37588C7.45404 9.29252 8.70404 9.8175 10.004 9.8175H9.9957ZM9.9957 1.63443C10.6457 1.63443 11.279 1.82609 11.8124 2.18441C12.354 2.54273 12.7707 3.05939 13.0207 3.65103C13.2707 4.25101 13.3374 4.90933 13.204 5.54264C13.079 6.17595 12.7624 6.75927 12.304 7.21759C11.8457 7.6759 11.2624 7.98423 10.629 8.11756C9.9957 8.24255 9.33737 8.17589 8.73737 7.93423C8.13737 7.68424 7.62904 7.26758 7.2707 6.72593C6.91237 6.18429 6.7207 5.55097 6.7207 4.90933C6.7207 4.04269 7.06237 3.20938 7.67904 2.59273C8.2957 1.97609 9.12904 1.63443 9.9957 1.63443Z" fill="#A8A8AE"/>
</g>
<defs>
<clipPath id="clip0_17353_115237">
<rect width="15.8917" height="19.9994" fill="white" transform="translate(2.05371)"/>
</clipPath>
</defs>
</svg>
